<svg xmlns="http://www.w3.org/2000/svg" version="1.1" xmlns:xlink="http://www.w3.org/1999/xlink" xmlns:svgjs="http://svgjs.dev/svgjs" width="100%" height="100%" viewBox="0 0 1000 600"><rect width="1000" height="600" x="0" y="0" fill="#fff748"/><g><circle r="166.66666666666666" cx="406.05549112955725" cy="428.2776319399352" fill="#3c1a5b" transform="matrix(0.5221632550555881,0,0,0.5221632550555881,0,76.36916744152974)"/><path d="M340.5530099880034 503.2775714933351L340.5530099880034 503.2775714933351Q319.35203085126403 503.2775714933351 302.71600242460295 494.0251210608274Q286.0493367448541 484.742033375232 276.582425540732 468.7493872634142Q267.0848770835222 452.7567411515964 267.0848770835222 432.2604188358758L267.0848770835222 432.2604188358758Q267.0848770835222 415.2567433721614 273.15105319490135 400.91850892708334Q279.21722930628056 386.5802744820053 290.12409140552796 375.8878731543723Q301.06159075786314 365.19547182673926 315.1853644313268 359.22120747462344Q329.2785008517027 353.27758037559533 345.608156747486 353.27758037559533L345.608156747486 353.27758037559533Q357.09712665540115 353.27758037559533 365.24663597674896 354.5949822583696Q373.3961452980967 355.9123841411439 379.7993311934414 358.3633643881658Q386.2025170887861 360.78370738209986 392.6057029841308 363.878069943965L392.6057029841308 363.878069943965L393.70864409529065 400.2751266122401L390.1853599901967 400.2751266122401L375.8471255451186 375.5508633704068Q366.5640378595232 369.1476774750621 360.0689402049152 366.72733448112797Q353.5432052972194 364.30699148719384 345.1792352042572 364.30699148719384L345.1792352042572 364.30699148719384Q328.17555974054284 364.30699148719384 314.94026640662463 371.6905694813473Q301.7049730727064 379.07414747550075 294.2294833192896 392.0030682785412Q286.7233563127851 404.9013518284939 286.7233563127851 421.2310077242773L286.7233563127851 421.2310077242773Q286.7233563127851 443.2898299474743 294.78095387486957 458.7310055037122Q302.8079141838663 474.1721810599501 316.5027663141011 482.3216903812979Q330.1669811912481 490.4711997026457 346.9255586302603 490.4711997026457L346.9255586302603 490.4711997026457Q354.2172248651504 490.4711997026457 360.9574205444606 489.613356616188Q367.66697897068303 488.7248762766426 374.95864520557313 485.8449744863919L374.95864520557313 485.8449744863919L374.95864520557313 449.44791781811676L355.32016597631025 440.62438892883796L355.32016597631025 437.10110482374404L410.03829999107404 437.10110482374404L410.03829999107404 440.62438892883796L394.81158520645045 450.1219373860478L394.81158520645045 484.742033375232Q384.6706544343974 493.136640721282 369.78094943373947 498.1917874807646Q354.89124443308145 503.2775714933351 340.5530099880034 503.2775714933351ZM545.0260370958047 501.0716892710154L435.40594554775055 501.0716892710154L435.40594554775055 497.5484051659214L453.05300332630816 488.7248762766426L453.05300332630816 367.8302755922878L435.40594554775055 359.006746703009L435.40594554775055 355.48346259791504L492.75888332806284 355.48346259791504L492.75888332806284 359.006746703009L472.90594332718547 367.8302755922878L472.90594332718547 488.939337048257L526.4904989777016 488.939337048257L541.5027529907106 452.1133588367531L545.0260370958047 452.1133588367531L545.0260370958047 501.0716892710154Z " fill="#fff748" transform="matrix(0.5221632550555881,0,0,0.5221632550555881,0,76.36916744152974)"/><path d="M710.9547219280394 465.3654838547056L710.9547219280394 465.3654838547056Q695.1122321186135 465.3654838547056 682.6809142479224 458.4515648916325Q670.2267026058305 451.5147521571584 663.152527242951 439.5642034858863Q656.0554581086706 427.6136548146142 656.0554581086706 412.2977217474092L656.0554581086706 412.2977217474092Q656.0554581086706 399.5916786199072 660.5884248460497 388.877393604284Q665.1213915834287 378.16310858866075 673.2715742021508 370.17318236974506Q681.4446505922735 362.18325615082944 691.9986792080905 357.7189707276531Q702.5298140525065 353.2775790758776 714.7321942091886 353.2775790758776L714.7321942091886 353.2775790758776Q723.3173584845277 353.2775790758776 729.4071016771683 354.2620112461165Q735.4968448698089 355.2464434163554 740.2816430925978 357.0779451284278Q745.0664413153869 358.88655306909925 749.851239538176 361.19882398059053L749.851239538176 361.19882398059053L750.6754153086085 388.396624404865L748.0426315975045 388.396624404865L737.3283465818812 369.92135088433514Q730.3915338474071 365.13655266154615 725.5380543104154 363.32794472087465Q720.6616810020228 361.5193367802032 714.411681409576 361.5193367802032L714.411681409576 361.5193367802032Q701.705638282074 361.5193367802032 691.8155290368833 367.0367356878212Q681.9254197916925 372.5541345954391 676.339339569872 382.2153061266208Q670.7303655766503 391.85358388640157 670.7303655766503 404.0559640430836L670.7303655766503 404.0559640430836Q670.7303655766503 420.53947945173473 676.7514274550882 432.0779402377906Q682.7495955621251 443.6164010238464 692.9831113783293 449.70614421648696Q703.1937334231327 455.79588740912754 715.7166263794275 455.79588740912754L715.7166263794275 455.79588740912754Q721.1653439728427 455.79588740912754 726.2019736810416 455.15486180990223Q731.2157096178397 454.490942439276 736.664427211255 452.338927927591L736.664427211255 452.338927927591L736.664427211255 425.14112750331657L721.9895197432753 418.5477213398561L721.9895197432753 415.91493762875206L762.8777954652905 415.91493762875206L762.8777954652905 418.5477213398561L751.499591079041 425.6447904741364L751.499591079041 451.5147521571584Q743.9217527453417 457.7876455210062 732.7953798445021 461.56511780215544Q721.6690069436627 465.3654838547056 710.9547219280394 465.3654838547056ZM814.961125402348 463.71713231384047L779.6818236735544 463.71713231384047L779.6818236735544 461.08434860273644L790.075595889565 455.79588740912754L790.075595889565 406.6887477541876L780.1854866443742 398.10358347884846L780.1854866443742 396.95889490880325L800.606730733981 387.8929614340451L801.6140566756208 387.8929614340451L803.0792580452787 401.9039495313986L803.7431774159049 401.9039495313986Q807.543543468455 395.814206338758 810.7486714645817 392.7464409710368Q813.9766932321091 389.70156937471654 816.7697333430194 388.80871229008125Q819.5627734539298 387.8929614340451 822.3787073362411 387.8929614340451L822.3787073362411 387.8929614340451Q823.6836523060927 387.8929614340451 825.4235789325613 388.396624404865Q827.1635055590301 388.877393604284 828.3081941290753 389.38105657510386L828.3081941290753 389.38105657510386Q830.1168020697467 390.20523234553644 831.6964722964092 391.34992091558166Q833.2532487516706 392.5175032570278 833.2532487516706 393.9827046266857L833.2532487516706 393.9827046266857Q833.2532487516706 395.47079976774444 832.5893293810444 396.95889490880325L832.5893293810444 396.95889490880325L829.2926262993142 405.0403962133225L828.147937729269 405.0403962133225L821.8750443654212 402.5678689020248Q820.0664364247498 401.74369313159224 818.326509798281 401.5834367317859Q816.6094769432132 401.4002865605787 814.961125402348 401.4002865605787L814.961125402348 401.4002865605787Q808.024312667874 401.4002865605787 803.2624082164859 408.49735569485904L803.2624082164859 408.49735569485904L803.2624082164859 455.79588740912754L814.961125402348 461.08434860273644L814.961125402348 463.71713231384047ZM879.2468354960876 465.3654838547056L879.2468354960876 465.3654838547056Q863.2440892868555 465.3654838547056 854.017899412291 455.63563100932123Q844.7917095377264 445.9057781639368 844.7917095377264 429.92592572610556L844.7917095377264 429.92592572610556Q844.7917095377264 417.5632891696172 849.6451890747182 408.08526780964274Q854.5215623831108 398.60724644966837 862.5114886020265 393.2501039418567Q870.501414820942 387.8929614340451 879.9107548667138 387.8929614340451L879.9107548667138 387.8929614340451Q892.9144170224275 387.8929614340451 900.4235740419241 396.95889490880325Q907.9327310614208 406.0248283835614 907.9327310614208 423.01200676303245L907.9327310614208 423.01200676303245L907.1085552909883 423.836182533465L857.818265464841 423.836182533465Q857.9785218646474 431.41402086716437 860.7715619755577 438.07610834482756Q863.5874958578689 444.7610895938916 869.7688141361132 448.8819684460544Q875.9501324143573 453.0028472982172 886.321010858967 453.0028472982172L886.321010858967 453.0028472982172Q895.3869443337252 453.0028472982172 907.5893244904072 446.4094411347567L907.5893244904072 446.4094411347567L908.092987461227 446.4094411347567L908.092987461227 448.05779267562184Q904.292621408677 455.15486180990223 896.8063581605812 460.2601728323039Q889.2972011410845 465.3654838547056 879.2468354960876 465.3654838547056ZM877.2550773842089 395.1502869681318L877.2550773842089 395.1502869681318Q869.3567262508968 395.1502869681318 864.3200965426979 400.6676858757497Q859.3063606058998 406.1850847833677 858.1387782644538 416.23545042836474L858.1387782644538 416.23545042836474L895.3869443337252 416.23545042836474Q893.5783363930537 405.0403962133225 889.0453696556747 400.0953415907271Q884.5124029182956 395.1502869681318 877.2550773842089 395.1502869681318ZM959.0316288282394 465.3654838547056L959.0316288282394 465.3654838547056Q943.0288826190072 465.3654838547056 933.8026927444428 455.63563100932123Q924.5765028698783 445.9057781639368 924.5765028698783 429.92592572610556L924.5765028698783 429.92592572610556Q924.5765028698783 417.5632891696172 929.4299824068701 408.08526780964274Q934.3063557152627 398.60724644966837 942.2962819341783 393.2501039418567Q950.2862081530939 387.8929614340451 959.6726544274647 387.8929614340451L959.6726544274647 387.8929614340451Q972.6992103545792 387.8929614340451 980.2083673740759 396.95889490880325Q987.6946306221716 406.0248283835614 987.6946306221716 423.01200676303245L987.6946306221716 423.01200676303245L986.8704548517392 423.836182533465L937.6030587969929 423.836182533465Q937.7633151967992 431.41402086716437 940.5563553077095 438.07610834482756Q943.3722891900208 444.7610895938916 949.553607468265 448.8819684460544Q955.7349257465091 453.0028472982172 966.1058041911188 453.0028472982172L966.1058041911188 453.0028472982172Q975.171737665877 453.0028472982172 987.374117822559 446.4094411347567L987.374117822559 446.4094411347567L987.8777807933789 446.4094411347567L987.8777807933789 448.05779267562184Q984.0774147408288 455.15486180990223 976.5682577213322 460.2601728323039Q969.0819944732364 465.3654838547056 959.0316288282394 465.3654838547056ZM957.0398707163606 395.1502869681318L957.0398707163606 395.1502869681318Q949.1415195830486 395.1502869681318 944.1048898748497 400.6676858757497Q939.0682601666508 406.1850847833677 937.9235715966056 416.23545042836474L937.9235715966056 416.23545042836474L975.171737665877 416.23545042836474Q973.3631297252055 405.0403962133225 968.8301629878265 400.0953415907271Q964.2971962504474 395.1502869681318 957.0398707163606 395.1502869681318ZM1039.2971913598103 463.71713231384047L1004.0178896310165 463.71713231384047L1004.0178896310165 461.08434860273644L1014.4116618470271 455.79588740912754L1014.4116618470271 406.6887477541876L1004.5215526018364 398.10358347884846L1004.5215526018364 396.95889490880325L1024.9656904628441 387.8929614340451L1025.950122633083 387.8929614340451L1027.4382177741418 400.0953415907271L1028.2623935445743 400.0953415907271Q1034.5123931370213 393.8224482268793 1040.3731986156527 390.86915171616266Q1046.2111103228833 387.8929614340451 1053.3081794571635 387.8929614340451L1053.3081794571635 387.8929614340451Q1063.0380323025481 387.8929614340451 1069.2193505807923 392.7464409710368Q1075.4006688590364 397.62281427942946 1075.4006688590364 407.1695169536066L1075.4006688590364 407.1695169536066L1075.4006688590364 455.79588740912754L1085.771547303646 461.08434860273644L1085.771547303646 463.71713231384047L1050.5151393462534 463.71713231384047L1050.5151393462534 461.08434860273644L1062.2138565321154 455.79588740912754L1062.2138565321154 414.9305054585132Q1062.2138565321154 407.6731799244265 1057.6808897947365 403.87281387187636Q1053.1479230573573 400.0953415907271 1045.8905975232706 400.0953415907271L1045.8905975232706 400.0953415907271Q1041.4492058714952 400.0953415907271 1036.0920633636836 401.5834367317859Q1030.734920855872 403.0486381014438 1027.598474173948 405.86457198375507L1027.598474173948 405.86457198375507L1027.598474173948 455.79588740912754L1039.2971913598103 461.08434860273644L1039.2971913598103 463.71713231384047ZM1225.881428277181 463.71713231384047L1143.9675142047452 463.71713231384047L1143.9675142047452 461.08434860273644L1157.154326531666 454.490942439276L1157.154326531666 364.15212049130724L1143.9675142047452 357.55871432784676L1143.9675142047452 354.9259306167428L1186.8246542672382 354.9259306167428L1186.8246542672382 357.55871432784676L1171.989490399452 364.15212049130724L1171.989490399452 454.6511988390823L1212.053590351035 454.6511988390823L1223.248644566077 427.1328856151952L1225.881428277181 427.1328856151952L1225.881428277181 463.71713231384047ZM1263.1524881178534 465.3654838547056L1263.1524881178534 465.3654838547056Q1255.3914996129467 465.3654838547056 1250.2861885905452 460.8325171173265Q1245.1808775681434 456.29955037994745 1245.1808775681434 448.21804907542815L1245.1808775681434 448.21804907542815Q1245.1808775681434 440.1365477709089 1251.2019394465813 434.2070609780747Q1257.2001075536182 428.27757418524044 1271.3942458221788 424.9808711035102L1271.3942458221788 424.9808711035102L1287.0535854603975 421.3636552221673L1287.0535854603975 409.32153146529157Q1287.0535854603975 403.71255747207005 1282.5206187230185 399.6832537055109Q1277.9876519856396 395.63105616755075 1272.2184215926115 395.63105616755075L1272.2184215926115 395.63105616755075Q1265.9455282287638 395.63105616755075 1263.4730009174662 399.0193343348846Q1261.0004736061683 402.40761250221846 1261.0004736061683 407.99369272403914L1261.0004736061683 407.99369272403914L1261.0004736061683 412.6182345470218L1260.176297835736 413.4424103174544L1251.6140273317976 413.4424103174544Q1249.1415000205 413.4424103174544 1248.2257491644637 412.6182345470218Q1247.3099983084276 411.7940587765893 1247.3099983084276 408.8178684944717L1247.3099983084276 408.8178684944717Q1247.3099983084276 405.2006526131288 1249.4620128201127 401.4002865605787Q1251.6140273317976 397.62281427942946 1256.055418983573 394.8068803971182L1256.055418983573 394.8068803971182Q1260.6799608065558 391.85358388640157 1265.6936967433537 389.86182577452286Q1270.7303264515526 387.8929614340451 1276.4995568445809 387.8929614340451L1276.4995568445809 387.8929614340451Q1282.2687872376084 387.8929614340451 1287.7861861452266 389.5413129749102Q1293.3035850528443 391.18966451577535 1296.7605445343809 395.05871188252814Q1300.2403977873184 398.927759249281 1300.2403977873184 405.86457198375507L1300.2403977873184 405.86457198375507L1300.2403977873184 452.6823344986045Q1301.3850863573637 453.82702306864974 1303.5371008690488 454.6511988390823Q1305.666221609333 455.47537460951486 1309.466587661883 455.47537460951486L1309.466587661883 455.47537460951486L1315.7165872543299 455.47537460951486L1316.2202502251496 455.79588740912754L1316.2202502251496 456.29955037994745Q1314.2513858846721 459.9167662612903 1310.3594447465182 462.64112505799795Q1306.4903973797652 465.3654838547056 1300.881423386544 465.3654838547056L1300.881423386544 465.3654838547056Q1295.7761123641421 465.3654838547056 1292.5709843680156 462.64112505799795Q1289.342962600488 459.9167662612903 1288.0380176306364 455.47537460951486L1288.0380176306364 455.47537460951486L1287.0535854603975 455.47537460951486Q1282.7495564370276 459.756509861484 1276.407981758977 462.57244374379525Q1270.0664070809264 465.3654838547056 1263.1524881178534 465.3654838547056ZM1258.0242833240509 444.9213459936979L1258.0242833240509 444.9213459936979Q1258.0242833240509 455.15486180990223 1270.3869198805392 455.15486180990223L1270.3869198805392 455.15486180990223Q1274.3475423328957 455.15486180990223 1278.2165896996485 454.33068603946964Q1282.1085308378022 453.5065102690371 1287.0535854603975 451.3544957573521L1287.0535854603975 451.3544957573521L1287.0535854603975 426.949735443988Q1273.8667731334765 429.42226275528566 1267.7541361694352 432.1466215519933Q1261.6643929767947 434.8709803487009 1259.855785036123 438.0074270306248Q1258.0242833240509 441.1438737125487 1258.0242833240509 444.9213459936979ZM1360.5654854287015 440.31969794211614L1360.5654854287015 440.31969794211614Q1353.3081598946148 440.31969794211614 1347.2184167019743 437.66402045961127L1347.2184167019743 437.66402045961127Q1343.921713620244 438.9918592008637 1342.5022997933881 441.1438737125487Q1341.1057797379328 443.27299445283285 1341.1057797379328 445.7455217641305L1341.1057797379328 445.7455217641305Q1341.1057797379328 453.98727946845605 1352.804496923795 453.98727946845605L1352.804496923795 453.98727946845605L1372.5847154141763 453.98727946845605Q1384.626839171052 453.98727946845605 1390.3044944784763 459.275740662065Q1396.0050435573016 464.541308084273 1396.0050435573016 474.9350803002836L1396.0050435573016 474.9350803002836Q1396.0050435573016 482.00925566316306 1391.3118204201162 488.5339805124208Q1386.59570351153 495.03581159027766 1377.941857921988 499.1566904424405Q1369.2880123324462 503.2775692946032 1357.4290387467775 503.2775692946032L1357.4290387467775 503.2775692946032Q1341.769699108559 503.2775692946032 1334.9244614596887 497.5999139871789Q1328.0792238108181 491.8993649083538 1328.0792238108181 483.6576072040282L1328.0792238108181 483.6576072040282Q1328.0792238108181 477.5678640113876 1331.0554140929357 473.10357858821124L1331.0554140929357 473.10357858821124L1342.4336184791853 465.5257402545119L1342.4336184791853 464.8618208838857Q1336.1607251153375 463.55687591403415 1332.8640220336072 460.0083413468939Q1329.567318951877 456.45980677975376 1329.567318951877 451.3544957573521L1329.567318951877 451.3544957573521Q1329.567318951877 445.0816023935043 1333.8484542038461 440.80046714153514L1333.8484542038461 440.80046714153514L1342.754131278798 436.19881908995336L1342.754131278798 435.19149314831355Q1337.48856385659 431.734533666777 1334.352117174666 426.3087098447627Q1331.2156704927422 420.8599922513474 1331.2156704927422 414.1063296880806L1331.2156704927422 414.1063296880806Q1331.2156704927422 406.6887477541876 1335.0160365452923 400.7592609613534Q1338.7935088264414 394.8068803971182 1345.4784900755055 391.34992091558166Q1352.1634713245696 387.8929614340451 1360.5654854287015 387.8929614340451L1360.5654854287015 387.8929614340451Q1364.0224449102382 387.8929614340451 1368.0517486767974 388.71713720447764Q1372.1039462147576 389.5413129749102 1375.057242725474 390.86915171616266L1375.057242725474 390.86915171616266L1399.7825158384508 389.5413129749102L1399.7825158384508 398.446990049862L1384.4665827712458 397.46255787962315L1383.8026634006194 398.10358347884846Q1386.4354471117235 401.079773760966 1388.175373738192 405.36090901293517Q1389.89240659326 409.64204426490426 1389.89240659326 414.1063296880806L1389.89240659326 414.1063296880806Q1389.89240659326 421.52391162197364 1386.1149343121108 427.45339841480785Q1382.3145682595607 433.3828852076421 1375.6524807818976 436.8398446891787Q1368.9674995328335 440.31969794211614 1360.5654854287015 440.31969794211614ZM1362.2138369695667 433.5431416074485L1362.2138369695667 433.5431416074485Q1368.8072431330272 433.5431416074485 1372.5847154141763 427.8654863000242Q1376.3850814667264 422.18783099259986 1376.3850814667264 414.5870988874996L1376.3850814667264 414.5870988874996Q1376.3850814667264 405.5211654127415 1371.4400268441311 400.0037665051235Q1366.4949722215358 394.48636759750553 1359.3979030872554 394.48636759750553L1359.3979030872554 394.48636759750553Q1352.3237277243759 394.48636759750553 1348.5233616718258 400.1640229049298Q1344.7458893906767 405.86457198375507 1344.7458893906767 413.6026667172607L1344.7458893906767 413.6026667172607Q1344.7458893906767 422.18783099259986 1349.690944013272 427.8654863000242Q1354.6359986358673 433.5431416074485 1362.2138369695667 433.5431416074485ZM1339.8008347680814 481.8489992633567L1339.8008347680814 481.8489992633567Q1339.8008347680814 489.1063247974434 1345.4784900755055 493.89112302023244Q1351.15614538293 498.65302747162053 1359.3979030872554 498.65302747162053L1359.3979030872554 498.65302747162053Q1366.8154850211486 498.65302747162053 1372.3557777001674 495.76841227510664Q1377.8731766077851 492.88379707859264 1380.9180482041058 488.19057394140725Q1383.9629198004259 483.49735080422187 1383.9629198004259 478.2317833820138L1383.9629198004259 478.2317833820138Q1383.9629198004259 470.9744578479271 1380.0938724336731 468.15852396561587Q1376.2248250669202 465.3654838547056 1366.1744594219233 465.3654838547056L1366.1744594219233 465.3654838547056L1348.5233616718258 465.3654838547056Q1348.042592472407 465.3654838547056 1347.699185901393 465.3654838547056L1347.699185901393 465.3654838547056Q1343.2577942496177 467.99826756580956 1341.5178676231492 472.0504651037697Q1339.8008347680814 476.0797688703288 1339.8008347680814 481.8489992633567ZM1452.5297651461344 465.3654838547056L1452.5297651461344 465.3654838547056Q1441.6552237307048 465.3654838547056 1433.505041111983 460.2601728323039Q1425.3319647218602 455.15486180990223 1420.798997984481 446.4094411347567Q1416.2660312471019 437.66402045961127 1416.2660312471019 426.6292226443753L1416.2660312471019 426.6292226443753Q1416.2660312471019 415.5944248291394 1420.798997984481 406.8490041539939Q1425.3319647218602 398.10358347884846 1433.505041111983 392.9982724564468Q1441.6552237307048 387.8929614340451 1452.5297651461344 387.8929614340451L1452.5297651461344 387.8929614340451Q1463.427200332965 387.8929614340451 1471.5773829516868 392.9982724564468Q1479.727565570409 398.10358347884846 1484.260532307788 406.8490041539939Q1488.793499045167 415.5944248291394 1488.793499045167 426.6292226443753L1488.793499045167 426.6292226443753Q1488.793499045167 437.66402045961127 1484.260532307788 446.4094411347567Q1479.727565570409 455.15486180990223 1471.5773829516868 460.2601728323039Q1463.427200332965 465.3654838547056 1452.5297651461344 465.3654838547056ZM1454.8420360576258 458.2684147204252L1454.8420360576258 458.2684147204252Q1461.4354422210863 458.2684147204252 1465.7165774730554 454.1475358682624Q1470.0206064964254 450.0266570160996 1471.9894708369031 443.52482593824277Q1473.958335177381 437.02299486038595 1473.958335177381 429.92592572610556L1473.958335177381 429.92592572610556Q1473.958335177381 421.1805050509601 1471.5773829516868 413.1218975178417Q1469.196430725993 405.0403962133225 1463.9995446179876 399.9350851909208Q1458.8026585099824 394.8068803971182 1450.5609008056567 394.8068803971182L1450.5609008056567 394.8068803971182Q1443.80723824239 394.8068803971182 1439.5261029904207 398.927759249281Q1435.2220739670508 403.0486381014438 1433.1616345409695 409.48178786509794Q1431.101195114888 415.91493762875206 1431.101195114888 423.17226316283876L1431.101195114888 423.17226316283876Q1431.101195114888 431.8947900665833 1433.573722426186 439.9762913711026Q1436.0462497374833 448.05779267562184 1441.3347109310923 453.1631036980235Q1446.6002783533004 458.2684147204252 1454.8420360576258 458.2684147204252ZM1541.5407483528509 465.3654838547056L1541.5407483528509 465.3654838547056Q1530.6662069374213 465.3654838547056 1522.5160243186992 460.2601728323039Q1514.3429479285762 455.15486180990223 1509.8099811911973 446.4094411347567Q1505.2770144538183 437.66402045961127 1505.2770144538183 426.6292226443753L1505.2770144538183 426.6292226443753Q1505.2770144538183 415.5944248291394 1509.8099811911973 406.8490041539939Q1514.3429479285762 398.10358347884846 1522.5160243186992 392.9982724564468Q1530.6662069374213 387.8929614340451 1541.5407483528509 387.8929614340451L1541.5407483528509 387.8929614340451Q1552.4381835396814 387.8929614340451 1560.5883661584032 392.9982724564468Q1568.738548777125 398.10358347884846 1573.2715155145045 406.8490041539939Q1577.8044822518834 415.5944248291394 1577.8044822518834 426.6292226443753L1577.8044822518834 426.6292226443753Q1577.8044822518834 437.66402045961127 1573.2715155145045 446.4094411347567Q1568.738548777125 455.15486180990223 1560.5883661584032 460.2601728323039Q1552.4381835396814 465.3654838547056 1541.5407483528509 465.3654838547056ZM1543.8530192643423 458.2684147204252L1543.8530192643423 458.2684147204252Q1550.4464254278025 458.2684147204252 1554.7275606797718 454.1475358682624Q1559.0315897031417 450.0266570160996 1561.0004540436196 443.52482593824277Q1562.9693183840975 437.02299486038595 1562.9693183840975 429.92592572610556L1562.9693183840975 429.92592572610556Q1562.9693183840975 421.1805050509601 1560.5883661584032 413.1218975178417Q1558.2074139327092 405.0403962133225 1553.010527824704 399.9350851909208Q1547.8136417166986 394.8068803971182 1539.571884012373 394.8068803971182L1539.571884012373 394.8068803971182Q1532.8182214491062 394.8068803971182 1528.5370861971371 398.927759249281Q1524.233057173767 403.0486381014438 1522.1726177476855 409.48178786509794Q1520.1121783216042 415.91493762875206 1520.1121783216042 423.17226316283876L1520.1121783216042 423.17226316283876Q1520.1121783216042 431.8947900665833 1522.584705632902 439.9762913711026Q1525.0572329441995 448.05779267562184 1530.3456941378086 453.1631036980235Q1535.6112615600166 458.2684147204252 1543.8530192643423 458.2684147204252ZM1629.2467865897156 463.71713231384047L1593.967484860922 463.71713231384047L1593.967484860922 461.08434860273644L1604.3612570769326 455.79588740912754L1604.3612570769326 406.6887477541876L1594.4711478317417 398.10358347884846L1594.4711478317417 396.95889490880325L1614.8923919213485 387.8929614340451L1615.8997178629884 387.8929614340451L1617.3649192326463 400.0953415907271L1618.1890950030788 400.0953415907271Q1624.4619883669268 393.8224482268793 1630.3227938455582 390.86915171616266Q1636.1607055527886 387.8929614340451 1643.257774687069 387.8929614340451L1643.257774687069 387.8929614340451Q1652.9876275324534 387.8929614340451 1659.1689458106976 392.7464409710368Q1665.3502640889417 397.62281427942946 1665.3502640889417 407.1695169536066L1665.3502640889417 407.1695169536066L1665.3502640889417 455.79588740912754L1675.7211425335515 461.08434860273644L1675.7211425335515 463.71713231384047L1640.441840804758 463.71713231384047L1640.441840804758 461.08434860273644L1652.163451762021 455.79588740912754L1652.163451762021 414.9305054585132Q1652.163451762021 407.6731799244265 1647.6304850246418 403.87281387187636Q1643.0975182872628 400.0953415907271 1635.840192753176 400.0953415907271L1635.840192753176 400.0953415907271Q1631.3759073299996 400.0953415907271 1626.0187648221881 401.5834367317859Q1620.6616223143762 403.0486381014438 1617.5480694038536 405.86457198375507L1617.5480694038536 405.86457198375507L1617.5480694038536 455.79588740912754L1629.2467865897156 461.08434860273644L1629.2467865897156 463.71713231384047Z " fill="#3c1a5b" transform="matrix(0.5221632550555881,0,0,0.5221632550555881,0,76.36916744152974)"/></g></svg>